<svg width="21" height="20" viewBox="0 0 21 20" fill="none" xmlns="http://www.w3.org/2000/svg">
<path d="M10.2095 0C15.7095 0 20.2095 4.5 20.2095 10C20.2095 15.5 15.7095 20 10.2095 20C4.70947 20 0.209473 15.5 0.209473 10C0.209473 4.5 4.70947 0 10.2095 0ZM10.2095 2C8.30947 2 6.60947 2.6 5.30947 3.7L16.5095 14.9C17.5095 13.5 18.2095 11.8 18.2095 10C18.2095 5.6 14.6095 2 10.2095 2ZM15.1095 16.3L3.90947 5.1C2.80947 6.4 2.20947 8.1 2.20947 10C2.20947 14.4 5.80947 18 10.2095 18C12.1095 18 13.8095 17.4 15.1095 16.3Z" fill="white"/>
</svg>
