<svg width="24" height="24" viewBox="0 0 24 24" fill="none" xmlns="http://www.w3.org/2000/svg">
<rect x="0.5" y="0.5" width="23" height="23" rx="3.5" stroke="#2C2C2C"/>
<path d="M16.0832 17.2487H9.6665V9.08203H16.0832V17.2487ZM16.0832 7.91536H9.6665C9.35708 7.91536 9.06034 8.03828 8.84155 8.25707C8.62275 8.47587 8.49984 8.77261 8.49984 9.08203V17.2487C8.49984 17.5581 8.62275 17.8549 8.84155 18.0737C9.06034 18.2924 9.35708 18.4154 9.6665 18.4154H16.0832C16.3926 18.4154 16.6893 18.2924 16.9081 18.0737C17.1269 17.8549 17.2498 17.5581 17.2498 17.2487V9.08203C17.2498 8.77261 17.1269 8.47587 16.9081 8.25707C16.6893 8.03828 16.3926 7.91536 16.0832 7.91536ZM14.3332 5.58203H7.33317C7.02375 5.58203 6.72701 5.70495 6.50821 5.92374C6.28942 6.14253 6.1665 6.43928 6.1665 6.7487V14.9154H7.33317V6.7487H14.3332V5.58203Z" fill="#8D8D8D"/>
</svg>
