<svg width="24" height="18" viewBox="0 0 24 18" fill="none" xmlns="http://www.w3.org/2000/svg">
<path fill-rule="evenodd" clip-rule="evenodd" d="M8.11994 0.0595581C8.05272 0.0496292 7.98439 0.0481166 7.91674 0.0550601C6.57114 0.191499 4.52314 0.872197 3.31354 1.48692C3.23365 1.52776 3.16214 1.58157 3.10234 1.64585C2.59994 2.18411 2.14394 3.06122 1.78714 3.89185C1.41914 4.74347 1.11514 5.64307 0.94394 6.29378C0.37754 8.40784 0.0687405 10.9462 0.0271405 13.3541C0.0258171 13.4743 0.0566204 13.5928 0.116741 13.699C0.596741 14.5581 1.63194 15.3542 2.66874 15.936C3.71674 16.5252 4.94074 16.99 5.92634 17.08C6.04443 17.0905 6.16352 17.0753 6.27429 17.0355C6.38505 16.9957 6.48446 16.9324 6.56474 16.8506C6.81114 16.6002 7.23034 16.0155 7.54714 15.5612C7.69114 15.3542 7.82714 15.1563 7.93274 14.9989C8.99194 15.1788 10.3199 15.2838 11.9999 15.2838C13.6767 15.2838 15.0047 15.1788 16.0639 14.9989C16.1695 15.1578 16.3039 15.3542 16.4479 15.5597C16.7647 16.0155 17.1839 16.6002 17.4319 16.8506C17.5122 16.9324 17.6116 16.9957 17.7224 17.0355C17.8332 17.0753 17.9523 17.0905 18.0703 17.08C19.0559 16.99 20.2783 16.5252 21.3263 15.936C22.3631 15.3542 23.3983 14.5581 23.8799 13.699C23.9395 13.5927 23.9698 13.4742 23.9679 13.3541C23.9279 10.9462 23.6175 8.40634 23.0543 6.29228C22.828 5.4758 22.5453 4.67396 22.2079 3.89185C21.8511 3.06122 21.3951 2.18261 20.8943 1.64585C20.8341 1.58143 20.762 1.52761 20.6815 1.48692C19.4735 0.872197 17.4255 0.191499 16.0783 0.0550601C16.0112 0.0482496 15.9434 0.049762 15.8767 0.0595581C15.5752 0.11394 15.2924 0.236427 15.0527 0.416399C14.516 0.821271 14.0821 1.33289 13.7823 1.91423C13.1894 1.87065 12.5948 1.84914 11.9999 1.84976C11.3567 1.84976 10.7615 1.87225 10.2127 1.91273C9.91278 1.33193 9.47886 0.82084 8.94234 0.416399C8.70319 0.236646 8.42093 0.114171 8.11994 0.0595581ZM17.6287 14.6211C17.8539 14.946 18.0849 15.2674 18.3215 15.5851C18.9551 15.4502 19.7631 15.1353 20.5375 14.7005C21.4063 14.2133 22.0959 13.651 22.4287 13.1757C22.3759 10.9177 22.0783 8.57277 21.5647 6.64163C21.3555 5.88948 21.0947 5.15077 20.7839 4.43011C20.4639 3.68345 20.1199 3.05073 19.8207 2.68789C18.7807 2.18261 17.1407 1.64885 16.0719 1.50342C16.0398 1.52169 16.0088 1.54172 15.9791 1.56339C15.8466 1.66113 15.7254 1.77169 15.6175 1.89324C15.5545 1.96362 15.4942 2.03614 15.4367 2.11065C15.9247 2.19461 16.3599 2.29506 16.7455 2.40601C17.8399 2.72087 18.6287 3.15568 19.0143 3.63697C19.1366 3.78966 19.189 3.9816 19.1602 4.17055C19.1314 4.3595 19.0237 4.52999 18.8607 4.64452C18.7801 4.70122 18.6882 4.74248 18.5905 4.76594C18.4928 4.78939 18.3912 4.79459 18.2913 4.78122C18.0897 4.75423 17.9078 4.65328 17.7855 4.50058C17.6911 4.38363 17.2799 4.06577 16.2943 3.7809C15.3423 3.50802 13.9423 3.28912 11.9999 3.28912C10.0575 3.28912 8.65594 3.50802 7.70554 3.7824C6.71994 4.06727 6.30874 4.38213 6.21434 4.50058C6.15383 4.57619 6.07801 4.63989 5.99123 4.68804C5.90445 4.73619 5.80839 4.76785 5.70855 4.78122C5.50691 4.80821 5.30209 4.75904 5.13914 4.64452C5.05846 4.58781 4.99048 4.51677 4.9391 4.43545C4.88771 4.35412 4.85392 4.26411 4.83966 4.17055C4.81085 3.9816 4.86333 3.78966 4.98554 3.63697C5.37114 3.15418 6.15994 2.72237 7.25434 2.40751C7.63834 2.29506 8.07354 2.19611 8.55994 2.11214C8.50243 2.03682 8.44157 1.96379 8.37754 1.89324C8.27021 1.77177 8.14955 1.66121 8.01754 1.56339C7.98736 1.54167 7.95584 1.52165 7.92314 1.50342C6.85594 1.64885 5.21594 2.18261 4.17594 2.68789C3.87514 3.05223 3.53274 3.68345 3.21114 4.43011C2.87034 5.22476 2.58714 6.05989 2.43194 6.64163C1.91674 8.57277 1.61914 10.9177 1.56794 13.1757C1.90074 13.6525 2.58874 14.2133 3.45754 14.702C4.23354 15.1368 5.03994 15.4517 5.67514 15.5851C5.91419 15.269 6.14519 14.9475 6.36794 14.6211C5.11194 14.2028 4.43834 13.6285 3.99994 13.0138C3.94405 12.935 3.90526 12.8467 3.88579 12.7539C3.86631 12.6611 3.86654 12.5656 3.88645 12.4729C3.90636 12.3802 3.94556 12.292 4.00182 12.2135C4.05808 12.135 4.13029 12.0676 4.21434 12.0152C4.29839 11.9629 4.39262 11.9265 4.49165 11.9083C4.59069 11.89 4.69259 11.8902 4.79154 11.9089C4.89049 11.9275 4.98455 11.9643 5.06835 12.017C5.15215 12.0697 5.22405 12.1374 5.27994 12.2161C5.69594 12.8039 6.79034 13.8444 11.9999 13.8444C17.2111 13.8444 18.3039 12.8039 18.7199 12.2161C18.8328 12.0571 19.0085 11.9466 19.2083 11.9089C19.4082 11.8712 19.6158 11.9095 19.7855 12.0152C19.9553 12.121 20.0732 12.2856 20.1134 12.4729C20.1536 12.6602 20.1128 12.8547 19.9999 13.0138C19.5615 13.6285 18.8863 14.2043 17.6287 14.6211ZM6.52794 7.8351C6.91834 7.44227 7.44794 7.22037 7.99994 7.21737C8.55194 7.22037 9.08154 7.44227 9.47194 7.8351C9.86074 8.22942 10.0799 8.76168 10.0799 9.31644C10.0799 9.87119 9.86074 10.4035 9.47194 10.7978C9.08154 11.1906 8.55194 11.4125 7.99994 11.4155C7.72247 11.4128 7.44858 11.3565 7.19532 11.2502C6.94207 11.1439 6.71489 10.9899 6.52794 10.7978C6.13371 10.3932 5.91663 9.86429 5.91994 9.31644C5.91994 8.76168 6.13914 8.22942 6.52794 7.8351ZM15.9999 7.21737C15.4479 7.22037 14.9183 7.44227 14.5279 7.8351C14.1391 8.22942 13.9199 8.76168 13.9199 9.31644C13.9199 9.87119 14.1391 10.4035 14.5279 10.7978C14.9183 11.1906 15.4479 11.4125 15.9999 11.4155C16.5519 11.4125 17.0815 11.1906 17.4719 10.7978C17.8607 10.4035 18.0799 9.87119 18.0799 9.31644C18.0799 8.76168 17.8607 8.22942 17.4719 7.8351C17.285 7.64294 17.0578 7.48893 16.8046 7.38265C16.5513 7.27638 16.2774 7.22011 15.9999 7.21737Z" fill="#8D8D8D"/>
</svg>
