<svg width="22" height="28" viewBox="0 0 22 28" fill="none" xmlns="http://www.w3.org/2000/svg">
  <path
    d="M0.333374 5.99935L5.66671 11.3327V7.33268H16.3334C17.0406 7.33268 17.7189 7.61363 18.219 8.11373C18.7191 8.61383 19 9.2921 19 9.99935C19 10.7066 18.7191 11.3849 18.219 11.885C17.7189 12.3851 17.0406 12.666 16.3334 12.666H5.66671C4.25222 12.666 2.89566 13.2279 1.89547 14.2281C0.895277 15.2283 0.333374 16.5849 0.333374 17.9993C0.333374 19.4138 0.895277 20.7704 1.89547 21.7706C2.89566 22.7708 4.25222 23.3327 5.66671 23.3327H16.3334V27.3327L21.6667 21.9993L16.3334 16.666V20.666H5.66671C4.95946 20.666 4.28119 20.3851 3.78109 19.885C3.28099 19.3849 3.00004 18.7066 3.00004 17.9993C3.00004 17.2921 3.28099 16.6138 3.78109 16.1137C4.28119 15.6136 4.95946 15.3327 5.66671 15.3327H16.3334C17.7479 15.3327 19.1044 14.7708 20.1046 13.7706C21.1048 12.7704 21.6667 11.4138 21.6667 9.99935C21.6667 8.58486 21.1048 7.22831 20.1046 6.22811C19.1044 5.22792 17.7479 4.66602 16.3334 4.66602H5.66671V0.666016L0.333374 5.99935Z"
    fill="#1DD736"
  />
</svg>
