<svg width="24" height="25" viewBox="0 0 24 25" fill="none" xmlns="http://www.w3.org/2000/svg">
<path d="M12 24.7402C18.6274 24.7402 24 19.3677 24 12.7402C24 6.11282 18.6274 0.740234 12 0.740234C5.37258 0.740234 0 6.11282 0 12.7402C0 19.3677 5.37258 24.7402 12 24.7402Z" fill="#627EEA"/>
<path d="M12.375 3.74023V10.3927L17.9978 12.9052L12.375 3.74023Z" fill="white" fill-opacity="0.602"/>
<path d="M12.3735 3.74023L6.75 12.9052L12.3735 10.3927V3.74023Z" fill="white"/>
<path d="M12.375 17.2152V21.7354L18.0015 13.9512L12.375 17.2152Z" fill="white" fill-opacity="0.602"/>
<path d="M12.3735 21.7354V17.2144L6.75 13.9512L12.3735 21.7354Z" fill="white"/>
<path d="M12.375 16.1703L17.9978 12.9055L12.375 10.3945V16.1703Z" fill="white" fill-opacity="0.2"/>
<path d="M6.75 12.9055L12.3735 16.1703V10.3945L6.75 12.9055Z" fill="white" fill-opacity="0.602"/>
</svg>
