<svg width="20" height="19" viewBox="0 0 20 19" fill="none" xmlns="http://www.w3.org/2000/svg">
<path d="M5.8 0.160156H14.2C17.4 0.160156 20 2.59655 20 5.59518V13.4666C20 14.908 19.3889 16.2905 18.3012 17.3097C17.2135 18.329 15.7383 18.9016 14.2 18.9016H5.8C2.6 18.9016 0 16.4652 0 13.4666V5.59518C0 4.15372 0.61107 2.7713 1.69878 1.75204C2.78649 0.732773 4.26174 0.160156 5.8 0.160156ZM5.6 2.0343C4.64522 2.0343 3.72955 2.38972 3.05442 3.02237C2.37928 3.65501 2 4.51307 2 5.40776V13.654C2 15.5188 3.61 17.0275 5.6 17.0275H14.4C15.3548 17.0275 16.2705 16.672 16.9456 16.0394C17.6207 15.4068 18 14.5487 18 13.654V5.40776C18 3.54299 16.39 2.0343 14.4 2.0343H5.6ZM15.25 3.43991C15.5815 3.43991 15.8995 3.56332 16.1339 3.78299C16.3683 4.00266 16.5 4.30059 16.5 4.61125C16.5 4.92191 16.3683 5.21985 16.1339 5.43952C15.8995 5.65918 15.5815 5.78259 15.25 5.78259C14.9185 5.78259 14.6005 5.65918 14.3661 5.43952C14.1317 5.21985 14 4.92191 14 4.61125C14 4.30059 14.1317 4.00266 14.3661 3.78299C14.6005 3.56332 14.9185 3.43991 15.25 3.43991ZM10 4.84552C11.3261 4.84552 12.5979 5.33916 13.5355 6.21783C14.4732 7.09651 15 8.28825 15 9.53088C15 10.7735 14.4732 11.9653 13.5355 12.8439C12.5979 13.7226 11.3261 14.2162 10 14.2162C8.67392 14.2162 7.40215 13.7226 6.46447 12.8439C5.52678 11.9653 5 10.7735 5 9.53088C5 8.28825 5.52678 7.09651 6.46447 6.21783C7.40215 5.33916 8.67392 4.84552 10 4.84552ZM10 6.71967C9.20435 6.71967 8.44129 7.01585 7.87868 7.54305C7.31607 8.07026 7 8.7853 7 9.53088C7 10.2765 7.31607 10.9915 7.87868 11.5187C8.44129 12.0459 9.20435 12.3421 10 12.3421C10.7956 12.3421 11.5587 12.0459 12.1213 11.5187C12.6839 10.9915 13 10.2765 13 9.53088C13 8.7853 12.6839 8.07026 12.1213 7.54305C11.5587 7.01585 10.7956 6.71967 10 6.71967Z" fill="#8D8D8D"/>
</svg>
