<svg width="20" height="20" viewBox="0 0 20 20" fill="none" xmlns="http://www.w3.org/2000/svg">
<mask id="path-1-inside-1_7788_46152" fill="white">
<path d="M7.28074 19.6232C8.65581 20.0117 10.0982 20.1011 11.5107 19.8852C12.9232 19.6694 14.2731 19.1533 15.4693 18.3718C16.6656 17.5902 17.6805 16.5614 18.4456 15.3546C19.2107 14.1478 19.7083 12.7911 19.9049 11.3757C20.1015 9.96041 19.9925 8.51939 19.5852 7.14974C19.1779 5.7801 18.4818 4.51364 17.5439 3.43569C16.6059 2.35774 15.4478 1.49332 14.1476 0.900669C12.8473 0.308019 11.4352 0.000900629 10.0063 1.9776e-06L10.0056 1.0897C11.2788 1.0905 12.5371 1.36415 13.6956 1.89222C14.8541 2.42029 15.886 3.19051 16.7218 4.151C17.5576 5.11149 18.1778 6.23994 18.5407 7.46033C18.9036 8.68073 19.0007 9.96472 18.8256 11.2258C18.6504 12.4869 18.207 13.6958 17.5253 14.7711C16.8435 15.8464 15.9392 16.7631 14.8733 17.4595C13.8074 18.1559 12.6047 18.6157 11.3461 18.808C10.0875 19.0004 8.80229 18.9208 7.57706 18.5745L7.28074 19.6232Z"/>
</mask>
<path d="M7.28074 19.6232C8.65581 20.0117 10.0982 20.1011 11.5107 19.8852C12.9232 19.6694 14.2731 19.1533 15.4693 18.3718C16.6656 17.5902 17.6805 16.5614 18.4456 15.3546C19.2107 14.1478 19.7083 12.7911 19.9049 11.3757C20.1015 9.96041 19.9925 8.51939 19.5852 7.14974C19.1779 5.7801 18.4818 4.51364 17.5439 3.43569C16.6059 2.35774 15.4478 1.49332 14.1476 0.900669C12.8473 0.308019 11.4352 0.000900629 10.0063 1.9776e-06L10.0056 1.0897C11.2788 1.0905 12.5371 1.36415 13.6956 1.89222C14.8541 2.42029 15.886 3.19051 16.7218 4.151C17.5576 5.11149 18.1778 6.23994 18.5407 7.46033C18.9036 8.68073 19.0007 9.96472 18.8256 11.2258C18.6504 12.4869 18.207 13.6958 17.5253 14.7711C16.8435 15.8464 15.9392 16.7631 14.8733 17.4595C13.8074 18.1559 12.6047 18.6157 11.3461 18.808C10.0875 19.0004 8.80229 18.9208 7.57706 18.5745L7.28074 19.6232Z" fill="#C4C4C4" stroke="#1DD736" stroke-width="2" mask="url(#path-1-inside-1_7788_46152)"/>
<mask id="path-2-inside-2_7788_46152" fill="white">
<path d="M12.7193 0.376818C11.3442 -0.0117416 9.90181 -0.101097 8.4893 0.114769C7.07678 0.330637 5.72693 0.846712 4.53068 1.62823C3.33442 2.40975 2.31955 3.43857 1.55441 4.64537C0.789282 5.85217 0.291666 7.20893 0.0950851 8.62426C-0.101496 10.0396 0.00752449 11.4806 0.414801 12.8503C0.822079 14.2199 1.51816 15.4864 2.45614 16.5643C3.39412 17.6423 4.55223 18.5067 5.85245 19.0993C7.15267 19.692 8.5648 19.9991 9.99371 20L9.9944 18.9103C8.72119 18.9095 7.46294 18.6358 6.30441 18.1078C5.14587 17.5797 4.11397 16.8095 3.27819 15.849C2.44242 14.8885 1.8222 13.7601 1.4593 12.5397C1.0964 11.3193 0.999264 10.0353 1.17442 8.77418C1.34958 7.51308 1.79297 6.30416 2.47473 5.22886C3.15648 4.15357 4.06077 3.23686 5.12667 2.5405C6.19257 1.84414 7.39532 1.38431 8.65392 1.19196C9.91251 0.999619 11.1977 1.07924 12.4229 1.42546L12.7193 0.376818Z"/>
</mask>
<path d="M12.7193 0.376818C11.3442 -0.0117416 9.90181 -0.101097 8.4893 0.114769C7.07678 0.330637 5.72693 0.846712 4.53068 1.62823C3.33442 2.40975 2.31955 3.43857 1.55441 4.64537C0.789282 5.85217 0.291666 7.20893 0.0950851 8.62426C-0.101496 10.0396 0.00752449 11.4806 0.414801 12.8503C0.822079 14.2199 1.51816 15.4864 2.45614 16.5643C3.39412 17.6423 4.55223 18.5067 5.85245 19.0993C7.15267 19.692 8.5648 19.9991 9.99371 20L9.9944 18.9103C8.72119 18.9095 7.46294 18.6358 6.30441 18.1078C5.14587 17.5797 4.11397 16.8095 3.27819 15.849C2.44242 14.8885 1.8222 13.7601 1.4593 12.5397C1.0964 11.3193 0.999264 10.0353 1.17442 8.77418C1.34958 7.51308 1.79297 6.30416 2.47473 5.22886C3.15648 4.15357 4.06077 3.23686 5.12667 2.5405C6.19257 1.84414 7.39532 1.38431 8.65392 1.19196C9.91251 0.999619 11.1977 1.07924 12.4229 1.42546L12.7193 0.376818Z" fill="#C4C4C4" fill-opacity="0.1" stroke="white" stroke-opacity="0.1" stroke-width="2" mask="url(#path-2-inside-2_7788_46152)"/>
</svg>
