<svg width="36" height="36" viewBox="0 0 36 36" fill="none" xmlns="http://www.w3.org/2000/svg">
  <g clipPath="url(#clip0_7339_34679)">
    <ellipse cx="11.8711" cy="12.1289" rx="11.8711" ry="11.8711" fill="#1E1E1E" />
    <path
      fillRule="evenodd"
      clipRule="evenodd"
      d="M8.55519 14.953V17.9322H13.1463C14.1394 17.8914 16.452 17.2792 17.7579 15.1571C18.1456 14.5994 18.8475 12.9942 18.5537 11.0353C18.3497 9.80416 17.1988 7.15421 14.2278 6.4033C13.9421 6.32848 13.2157 6.18701 12.5954 6.21966H5.29037V9.15799C5.32438 10.3007 6.02496 12.8758 8.55519 14.0348C8.88848 14.2185 9.88969 14.5898 11.2283 14.6062H13.1463C13.7857 14.4769 15.1052 13.8267 15.2685 12.2596C15.3093 11.3549 14.8318 9.54161 12.5954 9.52529H8.55519V12.0147C8.01106 11.6746 6.92278 10.57 6.92278 8.87232V7.87247H12.9831C14.119 7.96089 16.4887 8.80295 16.8805 11.4638C17.0369 12.3956 16.8601 14.5368 14.9012 15.6468C14.6155 15.8441 13.832 16.2386 12.9831 16.2386H10.2488V15.3816C9.87473 15.3203 9.01227 15.1489 8.55519 14.953ZM10.2701 11.2802V12.933H12.9839C13.188 12.865 13.5961 12.5983 13.5961 12.076C13.5893 11.8107 13.4288 11.2802 12.8411 11.2802H10.2701Z"
      fill="#1DD736"
    />
  </g>
  <path
    d="M24 36C30.6274 36 36 30.6274 36 24C36 17.3726 30.6274 12 24 12C17.3726 12 12 17.3726 12 24C12 30.6274 17.3726 36 24 36Z"
    fill="#627EEA"
  />
  <path d="M24.375 15V21.6525L29.9978 24.165L24.375 15Z" fill="white" fillOpacity="0.602" />
  <path d="M24.3735 15L18.75 24.165L24.3735 21.6525V15Z" fill="white" />
  <path d="M24.375 28.4749V32.9952L30.0015 25.2109L24.375 28.4749Z" fill="white" fillOpacity="0.602" />
  <path d="M24.3735 32.9952V28.4742L18.75 25.2109L24.3735 32.9952Z" fill="white" />
  <path d="M24.375 27.43L29.9978 24.1653L24.375 21.6543V27.43Z" fill="white" fillOpacity="0.2" />
  <path d="M18.75 24.1653L24.3735 27.43V21.6543L18.75 24.1653Z" fill="white" fillOpacity="0.602" />
  <defs>
    <clipPath id="clip0_7339_34679">
      <rect width="24" height="24" fill="white" />
    </clipPath>
  </defs>
</svg>
