<svg width="24" height="23" viewBox="0 0 24 23" fill="none" xmlns="http://www.w3.org/2000/svg">
<path d="M6.9895 16.4055C9.8832 16.4055 12.229 14.2073 12.229 11.4957C12.229 8.78413 9.8832 6.58594 6.9895 6.58594C4.0958 6.58594 1.75 8.78413 1.75 11.4957C1.75 14.2073 4.0958 16.4055 6.9895 16.4055Z" stroke="#8D8D8D" stroke-linecap="round" stroke-linejoin="round"/>
<path d="M16.159 16.4055C17.5215 16.4055 18.626 14.2073 18.626 11.4957C18.626 8.78413 17.5215 6.58594 16.159 6.58594C14.7965 6.58594 13.692 8.78413 13.692 11.4957C13.692 14.2073 14.7965 16.4055 16.159 16.4055Z" stroke="#8D8D8D" stroke-linecap="round" stroke-linejoin="round"/>
<path d="M21.1695 16.4055C21.7662 16.4055 22.25 14.2073 22.25 11.4957C22.25 8.78413 21.7662 6.58594 21.1695 6.58594C20.5727 6.58594 20.089 8.78413 20.089 11.4957C20.089 14.2073 20.5727 16.4055 21.1695 16.4055Z" stroke="#8D8D8D" stroke-linecap="round" stroke-linejoin="round"/>
</svg>
