<svg width="21" height="18" viewBox="0 0 21 18" fill="none" xmlns="http://www.w3.org/2000/svg">
<path d="M19.5625 1.14226C19.3813 0.995177 19.1608 0.897038 18.9247 0.858351C18.6885 0.819663 18.4456 0.841884 18.2219 0.922634L0.915627 7.29187C0.650087 7.38827 0.425209 7.56299 0.274925 7.78966C0.124641 8.01632 0.0571031 8.28265 0.0825033 8.54844C0.107904 8.81423 0.224863 9.06507 0.415735 9.2631C0.606606 9.46114 0.861034 9.59564 1.14063 9.64629L5.6875 10.4985V15.7871C5.68781 16.0294 5.7645 16.2663 5.90794 16.4679C6.05137 16.6695 6.25517 16.8269 6.49375 16.9204C6.65462 16.9818 6.82631 17.0146 7 17.017C7.17252 17.018 7.3435 16.9867 7.5029 16.9248C7.66229 16.8629 7.80687 16.7718 7.92813 16.6568L10.4875 14.2585L14.3125 17.4124C14.5494 17.6115 14.8568 17.721 15.175 17.7199C15.3121 17.7209 15.4484 17.7001 15.5781 17.6584C15.7946 17.5939 15.9892 17.4771 16.1422 17.3198C16.2953 17.1625 16.4014 16.9702 16.45 16.7623L19.9844 2.34583C20.0372 2.12822 20.0258 1.90125 19.9515 1.68923C19.8772 1.47721 19.7427 1.28814 19.5625 1.14226ZM1.21563 8.45151C1.20907 8.41448 1.21679 8.37647 1.2374 8.34428C1.25801 8.31209 1.29017 8.28782 1.32813 8.27581L15.8125 2.94322L6.11875 9.50573L1.36563 8.60964C1.3242 8.6053 1.28595 8.58675 1.25825 8.55755C1.23055 8.52835 1.21537 8.49058 1.21563 8.45151ZM7.13125 15.9101C7.10525 15.9356 7.07129 15.9528 7.03423 15.9591C6.99717 15.9654 6.95893 15.9606 6.925 15.9452C6.89204 15.9318 6.86391 15.9097 6.84397 15.8817C6.82402 15.8536 6.8131 15.8208 6.8125 15.7871V11.2276L9.63438 13.5645L7.13125 15.9101ZM15.3625 16.5251C15.3561 16.5555 15.3412 16.5839 15.3193 16.6072C15.2974 16.6305 15.2693 16.648 15.2378 16.6578C15.2064 16.6676 15.1727 16.6694 15.1403 16.6631C15.1078 16.6568 15.0778 16.6425 15.0531 16.6217L7.15 10.1031L18.8688 2.17891L15.3625 16.5251Z" fill="#8D8D8D"/>
</svg>
