<svg width="40" height="40" viewBox="0 0 40 40" fill="none" xmlns="http://www.w3.org/2000/svg">
  <rect width="40" height="40" rx="20" fill="#1DD736" />
  <path
    d="M12 14L16 18V15H24C24.5304 15 25.0391 15.2107 25.4142 15.5858C25.7893 15.9609 26 16.4696 26 17C26 17.5304 25.7893 18.0391 25.4142 18.4142C25.0391 18.7893 24.5304 19 24 19H16C14.9391 19 13.9217 19.4214 13.1716 20.1716C12.4214 20.9217 12 21.9391 12 23C12 24.0609 12.4214 25.0783 13.1716 25.8284C13.9217 26.5786 14.9391 27 16 27H24V30L28 26L24 22V25H16C15.4696 25 14.9609 24.7893 14.5858 24.4142C14.2107 24.0391 14 23.5304 14 23C14 22.4696 14.2107 21.9609 14.5858 21.5858C14.9609 21.2107 15.4696 21 16 21H24C25.0609 21 26.0783 20.5786 26.8284 19.8284C27.5786 19.0783 28 18.0609 28 17C28 15.9391 27.5786 14.9217 26.8284 14.1716C26.0783 13.4214 25.0609 13 24 13H16V10L12 14Z"
    fill="black"
  />
</svg>
