<svg id="Layer_1" data-name="Layer 1" xmlns="http://www.w3.org/2000/svg" viewBox="0 0 50 50"><defs><style>.cls-1{fill:none;stroke:#8d8d8d;stroke-miterlimit:10;}</style></defs><path class="cls-1" d="M49,11.1a19.85,19.85,0,0,1-5.66,1.55A9.83,9.83,0,0,0,47.67,7.2a19.63,19.63,0,0,1-6.25,2.39,9.85,9.85,0,0,0-16.78,9A28,28,0,0,1,4.34,8.28,9.87,9.87,0,0,0,7.39,21.43,9.87,9.87,0,0,1,2.93,20.2v.12A9.86,9.86,0,0,0,10.83,30a10.13,10.13,0,0,1-2.6.34,10.27,10.27,0,0,1-1.85-.17A9.86,9.86,0,0,0,15.58,37,19.77,19.77,0,0,1,3.35,41.2,18.2,18.2,0,0,1,1,41.06a27.83,27.83,0,0,0,15.1,4.43c18.11,0,28-15,28-28,0-.43,0-.86,0-1.27A20.18,20.18,0,0,0,49,11.1Z"/></svg>