<svg width="28" height="28" viewBox="0 0 28 28" fill="none" xmlns="http://www.w3.org/2000/svg">
<path d="M22 16.6662C21.2122 16.6714 20.4354 16.851 19.7253 17.1922C19.0153 17.5334 18.3896 18.0277 17.8933 18.6395L11.0933 15.5062C11.4131 14.5272 11.4131 13.4718 11.0933 12.4928L17.8933 9.3595C18.6955 10.3275 19.8138 10.9809 21.0509 11.2046C22.2879 11.4283 23.5643 11.2078 24.6546 10.582C25.7449 9.95627 26.5792 8.96547 27.0101 7.78449C27.441 6.60351 27.4409 5.30828 27.0097 4.12738C26.5786 2.94648 25.7442 1.95583 24.6538 1.33026C23.5633 0.704693 22.2869 0.484426 21.0499 0.708333C19.8129 0.93224 18.6947 1.58593 17.8927 2.55403C17.0907 3.52213 16.6565 4.74241 16.6667 5.9995C16.6707 6.31714 16.7019 6.63386 16.76 6.94617L9.72 10.1862C8.96944 9.45227 8.01899 8.95619 6.98774 8.76007C5.95649 8.56395 4.89029 8.67653 3.92273 9.08368C2.95518 9.49083 2.12928 10.1745 1.54854 11.0489C0.967786 11.9234 0.658005 12.9498 0.658005 13.9995C0.658005 15.0492 0.967786 16.0756 1.54854 16.9501C2.12928 17.8245 2.95518 18.5082 3.92273 18.9153C4.89029 19.3225 5.95649 19.435 6.98774 19.2389C8.01899 19.0428 8.96944 18.5467 9.72 17.8128L16.76 21.0528C16.7019 21.3651 16.6707 21.6819 16.6667 21.9995C16.6667 23.0543 16.9795 24.0855 17.5655 24.9625C18.1515 25.8396 18.9845 26.5232 19.959 26.9269C20.9336 27.3305 22.0059 27.4361 23.0405 27.2304C24.075 27.0246 25.0254 26.5166 25.7712 25.7707C26.5171 25.0249 27.0251 24.0745 27.2309 23.04C27.4366 22.0054 27.331 20.9331 26.9274 19.9585C26.5237 18.984 25.8401 18.151 24.963 17.565C24.086 16.979 23.0548 16.6662 22 16.6662ZM22 3.33284C22.5274 3.33284 23.043 3.48923 23.4815 3.78225C23.9201 4.07527 24.2618 4.49174 24.4637 4.97901C24.6655 5.46628 24.7183 6.00246 24.6154 6.51974C24.5125 7.03702 24.2586 7.51218 23.8856 7.88512C23.5127 8.25806 23.0375 8.51204 22.5202 8.61493C22.003 8.71782 21.4668 8.66501 20.9795 8.46318C20.4922 8.26135 20.0758 7.91955 19.7827 7.48102C19.4897 7.04249 19.3333 6.52692 19.3333 5.9995C19.3333 5.29226 19.6143 4.61398 20.1144 4.11388C20.6145 3.61379 21.2928 3.33284 22 3.33284ZM6 16.6662C5.47258 16.6662 4.95701 16.5098 4.51848 16.2168C4.07995 15.9237 3.73816 15.5073 3.53632 15.02C3.33449 14.5327 3.28168 13.9965 3.38457 13.4793C3.48747 12.962 3.74144 12.4868 4.11438 12.1139C4.48732 11.7409 4.96248 11.487 5.47976 11.3841C5.99704 11.2812 6.53322 11.334 7.02049 11.5358C7.50776 11.7377 7.92424 12.0795 8.21725 12.518C8.51027 12.9565 8.66667 13.4721 8.66667 13.9995C8.66667 14.7067 8.38572 15.385 7.88562 15.8851C7.38552 16.3852 6.70725 16.6662 6 16.6662ZM22 24.6662C21.4726 24.6662 20.957 24.5098 20.5185 24.2168C20.0799 23.9237 19.7382 23.5073 19.5363 23.02C19.3345 22.5327 19.2817 21.9965 19.3846 21.4793C19.4875 20.962 19.7414 20.4868 20.1144 20.1139C20.4873 19.7409 20.9625 19.487 21.4798 19.3841C21.997 19.2812 22.5332 19.334 23.0205 19.5358C23.5078 19.7377 23.9242 20.0794 24.2173 20.518C24.5103 20.9565 24.6667 21.4721 24.6667 21.9995C24.6667 22.7067 24.3857 23.385 23.8856 23.8851C23.3855 24.3852 22.7072 24.6662 22 24.6662Z" fill="white"/>
</svg>
