<svg width="24" height="24" viewBox="0 0 24 24" fill="none" xmlns="http://www.w3.org/2000/svg">
<rect width="24" height="24" rx="4" fill="#395185"/>
<g clip-path="url(#clip0_9702_36956)">
<path d="M15.9574 17.9995C16.3753 17.9995 16.7143 17.6606 16.7143 17.2426V5.04207C16.7143 4.624 16.3753 4.28516 15.9574 4.28516H3.75691C3.33879 4.28516 3 4.624 3 5.04207V17.2426C3 17.6606 3.33879 17.9995 3.75691 17.9995H15.9574Z" fill="#395185"/>
<path d="M12.4627 17.9985V12.6876H14.2454L14.5123 10.6178H12.4627V9.29633C12.4627 8.69708 12.6291 8.2887 13.4885 8.2887L14.5845 8.28822V6.43706C14.3948 6.41183 13.7443 6.35547 12.9874 6.35547C11.4072 6.35547 10.3253 7.32002 10.3253 9.09142V10.6178H8.53809V12.6876H10.3253V17.9985H12.4627Z" fill="white"/>
</g>
<defs>
<clipPath id="clip0_9702_36956">
<rect width="13.7143" height="13.7143" fill="white" transform="translate(3 4.28516)"/>
</clipPath>
</defs>
</svg>
