<svg width="24" height="24" viewBox="0 0 24 24" fill="none" xmlns="http://www.w3.org/2000/svg">
<rect width="24" height="24" rx="4" fill="#2C2C2C"/>
<g clip-path="url(#clip0_9702_36942)">
<path d="M17.0695 7.57329C16.8896 7.42075 16.6071 7.39893 16.315 7.51621H16.3145C16.0073 7.63948 7.61792 11.2379 7.2764 11.3849C7.21428 11.4065 6.67178 11.6089 6.72766 12.0598C6.77755 12.4663 7.21356 12.6347 7.26681 12.6541L9.39964 13.3844C9.54114 13.8555 10.0628 15.5933 10.1781 15.9645C10.2501 16.196 10.3674 16.5001 10.5729 16.5627C10.7533 16.6322 10.9326 16.5687 11.0487 16.4775L12.3527 15.2681L14.4577 16.9097L14.5078 16.9397C14.6508 17.003 14.7877 17.0347 14.9184 17.0347C15.0194 17.0347 15.1163 17.0157 15.2089 16.9778C15.5242 16.8483 15.6504 16.5478 15.6636 16.5138L17.2359 8.34099C17.3319 7.90449 17.1985 7.68241 17.0695 7.57329ZM11.2806 13.6765L10.5611 15.5952L9.84165 13.1969L15.3578 9.11972L11.2806 13.6765Z" fill="#29B6F6"/>
</g>
<defs>
<clipPath id="clip0_9702_36942">
<rect width="11.9916" height="11.9916" fill="white" transform="translate(6.00439 6.00391)"/>
</clipPath>
</defs>
</svg>
