<svg width="24" height="24" viewBox="0 0 24 24" fill="none" xmlns="http://www.w3.org/2000/svg">
<rect width="24" height="24" rx="4" fill="#03A9F4"/>
<path d="M16.4925 9.10665C16.162 9.25305 15.8065 9.35073 15.4315 9.39695C15.8127 9.17061 16.106 8.80961 16.2437 8.38316C15.8869 8.59226 15.4917 8.7459 15.0713 8.82685C14.7355 8.47085 14.2566 8.25 13.7259 8.25C12.7067 8.25 11.8805 9.06893 11.8805 10.0787C11.8805 10.2216 11.8972 10.3608 11.9287 10.4959C10.3953 10.419 9.03522 9.68999 8.12536 8.58377C7.96547 8.85408 7.87553 9.17061 7.87553 9.50462C7.87553 10.1394 8.20056 10.6983 8.69621 11.0276C8.39367 11.0183 8.10887 10.9341 7.85954 10.7992C7.85954 10.8047 7.85954 10.813 7.85954 10.8207C7.85954 11.7078 8.49585 12.4466 9.33926 12.6147C9.18512 12.6569 9.02223 12.6804 8.85435 12.6804C8.73518 12.6804 8.61901 12.6669 8.50659 12.6467C8.74143 13.3717 9.4227 13.9015 10.2299 13.9173C9.59833 14.4069 8.80288 14.7002 7.93799 14.7002C7.78859 14.7002 7.64245 14.6917 7.49805 14.6743C8.31523 15.1916 9.28555 15.4949 10.3271 15.4949C13.7209 15.4949 15.5776 12.7079 15.5776 10.2901C15.5776 10.2109 15.5751 10.1319 15.5714 10.054C15.9336 9.79817 16.2459 9.47539 16.4925 9.10665Z" fill="white"/>
</svg>
