<svg width="48" height="48" viewBox="0 0 48 48" fill="none" xmlns="http://www.w3.org/2000/svg">
<rect width="48" height="48" rx="24" fill="#007AFF"/>
<path d="M32.4 12H15.6C14.6452 12 13.7295 12.3793 13.0544 13.0544C12.3793 13.7295 12 14.6452 12 15.6V17.004C11.9998 17.4995 12.102 17.9898 12.3 18.444V18.516C12.4695 18.9012 12.7097 19.2512 13.008 19.548L20.4 26.892V34.8C20.3996 35.0039 20.4512 35.2046 20.5498 35.3831C20.6485 35.5615 20.7911 35.7119 20.964 35.82C21.155 35.9384 21.3753 36.0007 21.6 36C21.7879 35.9989 21.9728 35.9537 22.14 35.868L26.94 33.468C27.1379 33.3683 27.3043 33.2157 27.4208 33.0272C27.5373 32.8387 27.5993 32.6216 27.6 32.4V26.892L34.944 19.548C35.2423 19.2512 35.4825 18.9012 35.652 18.516V18.444C35.8666 17.9933 35.9851 17.5029 36 17.004V15.6C36 14.6452 35.6207 13.7295 34.9456 13.0544C34.2705 12.3793 33.3548 12 32.4 12ZM25.548 25.548C25.4368 25.6601 25.3488 25.7931 25.2891 25.9393C25.2294 26.0855 25.1991 26.2421 25.2 26.4V31.656L22.8 32.856V26.4C22.8009 26.2421 22.7706 26.0855 22.7109 25.9393C22.6512 25.7931 22.5632 25.6601 22.452 25.548L16.092 19.2H31.908L25.548 25.548ZM33.6 16.8H14.4V15.6C14.4 15.2817 14.5264 14.9765 14.7515 14.7515C14.9765 14.5264 15.2817 14.4 15.6 14.4H32.4C32.7183 14.4 33.0235 14.5264 33.2485 14.7515C33.4736 14.9765 33.6 15.2817 33.6 15.6V16.8Z" fill="white"/>
</svg>
