<svg width="48" height="48" viewBox="0 0 48 48" fill="none" xmlns="http://www.w3.org/2000/svg">
<rect width="48" height="48" rx="24" fill="#007AFF"/>
<g clip-path="url(#clip0_12235_69149)">
<path d="M16.8447 23.5227L23.9993 16.5504L31.1556 23.5277C31.4785 23.8426 31.9056 24 32.3327 24C32.7598 24 33.1858 23.8413 33.5108 23.5239C34.1618 22.8892 34.1618 21.8608 33.5108 21.2261L25.1775 13.1011C24.5264 12.4663 23.4717 12.4663 22.8207 13.1011L14.4874 21.2261C13.8363 21.8608 13.8363 22.8892 14.4874 23.5239C15.1384 24.1587 16.1936 24.1574 16.8447 23.5227ZM25.1764 22.8523C24.5254 22.2176 23.4707 22.2176 22.8197 22.8523L14.4863 30.9773C13.8353 31.6121 13.8353 32.6404 14.4863 33.2752C15.1374 33.91 16.1921 33.91 16.8431 33.2752L23.9993 26.3004L31.1556 33.2777C31.4785 33.5926 31.9056 33.75 32.3327 33.75C32.7598 33.75 33.1858 33.5913 33.5108 33.2739C34.1618 32.6392 34.1618 31.6108 33.5108 30.9761L25.1764 22.8523Z" fill="white"/>
</g>
<defs>
<clipPath id="clip0_12235_69149">
<rect width="20" height="26" fill="white" transform="translate(14 11)"/>
</clipPath>
</defs>
</svg>
