<svg width="56" height="38" viewBox="0 0 56 38" fill="none" xmlns="http://www.w3.org/2000/svg">
<path d="M45.1501 14.4254C43.5634 6.37536 36.4934 0.332031 28.0001 0.332031C21.2567 0.332031 15.4001 4.1587 12.4834 9.7587C5.46006 10.5054 6.10352e-05 16.4554 6.10352e-05 23.6654C6.10352e-05 27.3784 1.47506 30.9393 4.10057 33.5649C6.72608 36.1904 10.287 37.6654 14.0001 37.6654H44.3334C45.8655 37.6654 47.3826 37.3636 48.798 36.7773C50.2135 36.191 51.4996 35.3316 52.583 34.2483C53.6663 33.1649 54.5257 31.8788 55.112 30.4633C55.6983 29.0479 56.0001 27.5308 56.0001 25.9987C56.0001 19.8387 51.2167 14.8454 45.1501 14.4254ZM44.3334 32.9987H14.0001C11.5247 32.9987 9.15074 32.0154 7.4004 30.265C5.65006 28.5147 4.66673 26.1407 4.66673 23.6654C4.66673 18.882 8.23673 14.892 12.9734 14.402L15.4701 14.1454L16.6367 11.9287C18.8534 7.6587 23.1934 4.9987 28.0001 4.9987C34.1134 4.9987 39.3867 9.3387 40.5767 15.3354L41.2767 18.8354L44.8467 19.092C48.4867 19.3254 51.3334 22.382 51.3334 25.9987C51.3334 27.8552 50.5959 29.6357 49.2831 30.9484C47.9704 32.2612 46.1899 32.9987 44.3334 32.9987ZM18.6667 21.332H24.6167V28.332H31.3834V21.332H37.3334L28.0001 11.9987L18.6667 21.332Z" fill="#8D8D8D"/>
</svg>
