<svg width="40" height="40" viewBox="0 0 40 40" fill="none" xmlns="http://www.w3.org/2000/svg">
  <rect width="40" height="40" rx="20" fill="#1DD736" />
  <path
    d="M13 11C11.89 11 11 11.9 11 13V27C11 27.5304 11.2107 28.0391 11.5858 28.4142C11.9609 28.7893 12.4696 29 13 29H27C27.5304 29 28.0391 28.7893 28.4142 28.4142C28.7893 28.0391 29 27.5304 29 27V24.72C29.59 24.37 30 23.74 30 23V17C30 16.26 29.59 15.63 29 15.28V13C29 12.4696 28.7893 11.9609 28.4142 11.5858C28.0391 11.2107 27.5304 11 27 11H13ZM13 13H27V15H21C20.4696 15 19.9609 15.2107 19.5858 15.5858C19.2107 15.9609 19 16.4696 19 17V23C19 23.5304 19.2107 24.0391 19.5858 24.4142C19.9609 24.7893 20.4696 25 21 25H27V27H13V13ZM21 17H28V23H21V17ZM24 18.5C23.6022 18.5 23.2206 18.658 22.9393 18.9393C22.658 19.2206 22.5 19.6022 22.5 20C22.5 20.3978 22.658 20.7794 22.9393 21.0607C23.2206 21.342 23.6022 21.5 24 21.5C24.3978 21.5 24.7794 21.342 25.0607 21.0607C25.342 20.7794 25.5 20.3978 25.5 20C25.5 19.6022 25.342 19.2206 25.0607 18.9393C24.7794 18.658 24.3978 18.5 24 18.5Z"
    fill="black"
  />
</svg>